<?xml version="1.0" standalone="no"?>
<!DOCTYPE svg PUBLIC "-//W3C//DTD SVG 20010904//EN"
 "http://www.w3.org/TR/2001/REC-SVG-20010904/DTD/svg10.dtd">
<svg version="1.0" xmlns="http://www.w3.org/2000/svg"
 width="73.000000pt" height="69.000000pt" viewBox="0 0 73.000000 69.000000"
 preserveAspectRatio="xMidYMid meet">

<g transform="translate(0.000000,69.000000) scale(0.100000,-0.100000)"
fill="#000000" stroke="none">
<path d="M282 561 c-84 -21 -155 -40 -157 -43 -3 -3 1 -11 10 -18 14 -12 14
-15 -1 -31 -10 -11 -24 -19 -31 -19 -40 0 57 -255 114 -300 24 -18 25 -18 191
38 l167 57 0 80 c-1 58 -7 97 -23 141 -26 69 -75 134 -100 133 -9 0 -86 -18
-170 -38z m238 -65 c33 -66 62 -219 45 -235 -9 -8 -282 -101 -297 -101 -4 0
-5 6 -2 13 10 27 -27 162 -67 246 -23 47 -42 88 -41 91 1 2 68 21 149 40 172
42 165 44 213 -54z m-336 -81 c47 -100 83 -265 58 -265 -23 0 -95 132 -116
215 -14 52 -14 56 7 80 12 13 23 25 23 25 1 0 13 -25 28 -55z"/>
<path d="M422 539 c5 -14 48 -32 48 -20 0 4 -12 13 -26 20 -20 9 -25 9 -22 0z"/>
<path d="M381 514 c13 -14 25 -20 27 -14 2 6 -4 18 -14 25 -31 24 -39 17 -13
-11z"/>
<path d="M350 505 c13 -14 26 -23 28 -20 7 7 -29 45 -41 45 -6 0 0 -11 13 -25z"/>
<path d="M270 515 c0 -2 5 -16 12 -30 12 -26 34 -36 25 -11 -3 8 -1 17 6 20 7
2 4 5 -5 5 -10 1 -18 6 -18 11 0 6 -4 10 -10 10 -5 0 -10 -2 -10 -5z"/>
<path d="M200 496 c0 -5 54 -36 65 -36 13 0 3 18 -12 23 -10 2 -26 8 -35 12
-10 4 -18 5 -18 1z"/>
<path d="M453 483 c-26 -5 -27 -8 -12 -52 9 -24 14 -29 24 -21 7 6 11 20 8 30
-3 12 0 20 7 20 6 0 14 -9 17 -19 5 -19 33 -38 33 -22 0 4 -5 22 -11 40 -11
31 -18 33 -66 24z"/>
</g>
</svg>
